# xmcd
#
# Track frame offsets:
#	150
#	18144
#	34597
#	51985
#	68460
#	84984
#	101693
#	122728
#	140250
#	156770
#	176805
#	196730
#	216076
#	238376
#	254545
#	285703
#
# Disc length: 3824 seconds
#
# Revision: 1
# Processed by: cddbd v1.5.2PL0 Copyright (c) Steve Scherf et al.
# Submitted via: audiograbber 1.83.01
#
DISCID=dd0eee10
DTITLE=Reba - 90276
DYEAR=1900
DGENRE=
TTITLE0=Somebody
TTITLE1=I'm a survivor
TTITLE2=He get's that from me
TTITLE3=I'm gonna take that mtn.
TTITLE4=Sweet music man
TTITLE5=what do you say
TTITLE6=I'll be
TTITLE7=Were so good together
TTITLE8=room to breath
TTITLE9=Back before the war
TTITLE10=Everything that you want
TTITLE11=My sister
TTITLE12=Roses
TTITLE13=T'll I said it to you
TTITLE14=We're all alone
TTITLE15=na
EXTD=
EXTT0=
EXTT1=
EXTT2=
EXTT3=
EXTT4=
EXTT5=
EXTT6=
EXTT7=
EXTT8=
EXTT9=
EXTT10=
EXTT11=
EXTT12=
EXTT13=
EXTT14=
EXTT15=
PLAYORDER=
